<svg width="15" height="15" viewBox="0 0 15 15" fill="none" xmlns="http://www.w3.org/2000/svg">
<path d="M7.78335 13.45C9.28624 13.45 10.7276 12.853 11.7903 11.7903C12.853 10.7276 13.45 9.28623 13.45 7.78333C13.45 6.28044 12.853 4.8391 11.7903 3.77639C10.7276 2.71369 9.28624 2.11666 7.78335 2.11666C6.28045 2.11666 4.83911 2.71369 3.77641 3.77639C2.7137 4.8391 2.11668 6.28044 2.11668 7.78333C2.11668 9.28623 2.7137 10.7276 3.77641 11.7903C4.83911 12.853 6.28045 13.45 7.78335 13.45ZM7.78335 0.699997C8.71354 0.699997 9.63463 0.883213 10.494 1.23918C11.3534 1.59515 12.1343 2.11691 12.792 2.77466C13.4498 3.43241 13.9715 4.21327 14.3275 5.07266C14.6835 5.93205 14.8667 6.85314 14.8667 7.78333C14.8667 9.66195 14.1204 11.4636 12.792 12.792C11.4636 14.1204 9.66196 14.8667 7.78335 14.8667C3.86626 14.8667 0.700012 11.6792 0.700012 7.78333C0.700012 5.90471 1.44629 4.10304 2.77467 2.77466C4.10306 1.44627 5.90473 0.699997 7.78335 0.699997ZM8.13751 4.24166V7.96042L11.325 9.85167L10.7938 10.7229L7.07501 8.49167V4.24166H8.13751Z" fill="#616161"/>
</svg>
