<svg width="15" height="15" viewBox="0 0 15 15" fill="none" xmlns="http://www.w3.org/2000/svg">
<path d="M8.20834 0.437912V0.452079V1.86875C11.3179 2.25125 13.5208 5.0775 13.1383 8.18708C12.8125 10.7654 10.7867 12.8125 8.20834 13.1171V14.5337C12.1042 14.1442 14.9375 10.6875 14.5479 6.79166C14.2292 3.42708 11.5588 0.770829 8.20834 0.437912ZM6.79167 0.459162C5.41042 0.593745 4.09292 1.125 3.01625 2.0175L4.02917 3.06583C4.8225 2.42833 5.77875 2.0175 6.79167 1.87583V0.459162ZM2.0175 3.01625C1.125 4.09291 0.593754 5.40333 0.452087 6.79166H1.86875C2.00334 5.78583 2.4 4.82958 3.03042 4.02916L2.0175 3.01625ZM9.97917 5.02083L6.5225 8.4775L5.02084 6.97583L4.27 7.72666L6.5225 9.97916L10.73 5.77166L9.97917 5.02083ZM0.459171 8.20833C0.600837 9.59666 1.14625 10.9071 2.02459 11.9837L3.03042 10.9708C2.40709 10.1704 2.00334 9.21416 1.87584 8.20833H0.459171ZM4.02917 12.0121L3.01625 12.9825C4.08584 13.875 5.40334 14.4346 6.79167 14.5833V13.1667C5.78584 13.0392 4.82959 12.6354 4.02917 12.0121Z" fill="#616161"/>
</svg>
