<svg width="15" height="15" viewBox="0 0 15 15" fill="none" xmlns="http://www.w3.org/2000/svg">
<path fill-rule="evenodd" clip-rule="evenodd" d="M7.49999 0.416672C3.58999 0.416672 0.416656 3.59 0.416656 7.50001C0.416656 11.41 3.58999 14.5833 7.49999 14.5833C11.41 14.5833 14.5833 11.41 14.5833 7.50001C14.5833 3.59 11.41 0.416672 7.49999 0.416672ZM7.49999 13.1667C4.37624 13.1667 1.83332 10.6238 1.83332 7.5C1.83332 4.37625 4.37624 1.83334 7.49999 1.83334C10.6237 1.83334 13.1667 4.37625 13.1667 7.5C13.1667 10.6238 10.6237 13.1667 7.49999 13.1667ZM6.08332 9.03709L10.7512 4.36917L11.75 5.375L6.08332 11.0417L3.24999 8.20834L4.24874 7.20959L6.08332 9.03709Z" fill="#616161"/>
</svg>
