<svg width="18" height="15" viewBox="0 0 18 15" fill="none" xmlns="http://www.w3.org/2000/svg">
<path fill-rule="evenodd" clip-rule="evenodd" d="M5.71931 1.75925L3.32671 4.15184L2.80975 4.6688C2.654 4.82455 2.38227 4.82455 2.22652 4.6688L0.649131 3.09804C0.49338 2.94229 0.49338 2.69044 0.649131 2.53469L1.1694 2.01442C1.32515 1.85867 1.57701 1.85867 1.73276 2.01442L2.485 2.74678L4.59591 0.649116C4.75167 0.493365 5.00352 0.493365 5.15927 0.649116L5.72262 1.1959C5.87506 1.35165 5.87506 1.6035 5.71931 1.75925ZM16.9698 3.84697H7.42593C7.13432 3.84697 6.89572 3.60838 6.89572 3.31676V1.99122C6.89572 1.6996 7.13432 1.46101 7.42593 1.46101H16.9698C17.2614 1.46101 17.5 1.6996 17.5 1.99122V3.31676C17.5 3.60838 17.2614 3.84697 16.9698 3.84697ZM16.9698 9.14912H7.42593C7.13432 9.14912 6.89572 8.91052 6.89572 8.6189V7.29337C6.89572 7.00175 7.13432 6.76315 7.42593 6.76315H16.9698C17.2614 6.76315 17.5 7.00175 17.5 7.29337V8.6189C17.5 8.91052 17.2614 9.14912 16.9698 9.14912ZM7.42593 14.4513H16.9698C17.2614 14.4513 17.5 14.2127 17.5 13.921V12.5955C17.5 12.3039 17.2614 12.0653 16.9698 12.0653H7.42593C7.13432 12.0653 6.89572 12.3039 6.89572 12.5955V13.921C6.89572 14.2127 7.13432 14.4513 7.42593 14.4513ZM1.04348 13.2583C1.04348 12.3801 1.77584 11.6676 2.654 11.6676C3.53217 11.6676 4.24465 12.3801 4.24465 13.2583C4.24465 14.1364 3.53217 14.8489 2.654 14.8489C1.77584 14.8489 1.04348 14.1364 1.04348 13.2583ZM3.32671 9.44073L5.71931 7.04814C5.87506 6.89239 5.87506 6.64054 5.72262 6.4881L5.15927 5.92475C5.00352 5.769 4.75167 5.769 4.59591 5.92475L2.485 8.03567L1.73276 7.30331C1.57701 7.14756 1.32515 7.14756 1.1694 7.30331L0.649131 7.82358C0.49338 7.97933 0.49338 8.23118 0.649131 8.38693L2.22321 9.96101C2.37896 10.1168 2.65069 10.1168 2.80644 9.96101L3.32671 9.44073Z" fill="#757575"/>
</svg>
